<svg aria-hidden="true" style="position: absolute; width: 0; height: 0; overflow: hidden;" version="1.1" xmlns="http://www.w3.org/2000/svg" xmlns:xlink="http://www.w3.org/1999/xlink">
<defs>
<symbol id="icon-menu" viewBox="0 0 32 32">
<path d="M5.333 8h21.333v2.667h-21.333v-2.667zM5.333 14.667h21.333v2.667h-21.333v-2.667zM5.333 21.333h21.333v2.667h-21.333v-2.667z"></path>
</symbol>
<symbol id="icon-Checkbox" viewBox="0 0 32 32">
<path d="M24 0.8c3.976 0 7.2 3.224 7.2 7.2v16c0 3.976-3.224 7.2-7.2 7.2h-16c-3.976 0-7.2-3.224-7.2-7.2v-16c0-3.976 3.224-7.2 7.2-7.2h16z"></path>
<path stroke-linejoin="miter" stroke-linecap="butt" stroke-miterlimit="4" stroke-width="1.6" d="M24 0.8c3.976 0 7.2 3.224 7.2 7.2v16c0 3.976-3.224 7.2-7.2 7.2h-16c-3.976 0-7.2-3.224-7.2-7.2v-16c0-3.976 3.224-7.2 7.2-7.2h16z"></path>
<path d="M12.115 20.247l-5.117-5.117-2.197 2.197 7.315 7.315 15.085-15.085-2.197-2.197-12.888 12.888z"></path>
</symbol>
<symbol id="icon-keyboard_arrow_down" viewBox="0 0 32 32">
<path d="M16 20.269c-0.149 0-0.29-0.027-0.422-0.083s-0.259-0.143-0.381-0.265l-6.592-6.592c-0.227-0.227-0.334-0.497-0.323-0.812s0.13-0.586 0.357-0.812c0.227-0.227 0.497-0.34 0.812-0.34s0.586 0.113 0.812 0.34l5.738 5.771 5.771-5.771c0.227-0.227 0.492-0.334 0.796-0.323s0.569 0.13 0.796 0.357c0.227 0.227 0.34 0.497 0.34 0.812s-0.113 0.586-0.34 0.812l-6.559 6.559c-0.122 0.122-0.249 0.21-0.381 0.265s-0.273 0.083-0.422 0.083z"></path>
</symbol>
<symbol id="icon-delete_forever" viewBox="0 0 32 32">
<path d="M8.636 28.2c-0.632 0-1.17-0.221-1.614-0.663s-0.665-0.978-0.665-1.608v-18.865h-0.367c-0.321 0-0.59-0.11-0.808-0.329s-0.327-0.49-0.327-0.812c0-0.322 0.109-0.591 0.327-0.806s0.488-0.323 0.808-0.323h5.474c0-0.326 0.109-0.598 0.328-0.816s0.488-0.327 0.808-0.327h6.792c0.32 0 0.59 0.111 0.808 0.332s0.327 0.492 0.327 0.812h5.482c0.321 0 0.59 0.11 0.808 0.329s0.327 0.49 0.327 0.812c0 0.322-0.109 0.591-0.327 0.807s-0.488 0.323-0.808 0.323h-0.367v18.865c0 0.63-0.222 1.166-0.665 1.608s-0.981 0.663-1.614 0.663h-14.727zM23.363 7.064h-14.727v18.865h14.727v-18.865zM16 18.104l3.136 3.162c0.233 0.238 0.515 0.361 0.848 0.37s0.618-0.109 0.856-0.353c0.233-0.251 0.349-0.535 0.349-0.853s-0.116-0.596-0.349-0.834l-3.136-3.195 3.136-3.203c0.233-0.233 0.349-0.51 0.349-0.831s-0.116-0.601-0.349-0.839c-0.238-0.233-0.524-0.349-0.856-0.349s-0.615 0.116-0.848 0.349l-3.136 3.17-3.103-3.17c-0.233-0.233-0.514-0.349-0.844-0.349s-0.614 0.116-0.852 0.349c-0.233 0.238-0.349 0.524-0.349 0.856s0.116 0.615 0.349 0.848l3.128 3.17-3.128 3.17c-0.238 0.233-0.356 0.514-0.353 0.844s0.12 0.614 0.353 0.852c0.24 0.233 0.524 0.349 0.853 0.349s0.612-0.116 0.851-0.349l3.095-3.162z"></path>
</symbol>
<symbol id="icon-edit_square" viewBox="0 0 32 32">
<path d="M6.072 28.199c-0.613 0-1.145-0.225-1.595-0.676s-0.676-0.982-0.676-1.595v-19.857c0-0.616 0.225-1.149 0.676-1.601s0.982-0.678 1.595-0.678h10.757c0.381 0 0.667 0.118 0.858 0.354s0.286 0.496 0.286 0.779c0 0.283-0.096 0.545-0.288 0.786s-0.474 0.36-0.847 0.36h-10.765v19.857h19.857v-10.857c0-0.373 0.118-0.656 0.354-0.848s0.496-0.288 0.779-0.288 0.545 0.096 0.785 0.288c0.24 0.192 0.361 0.475 0.361 0.848v10.857c0 0.613-0.226 1.145-0.678 1.595s-0.985 0.676-1.601 0.676h-19.857zM11.904 18.96v-3.722c0-0.312 0.062-0.61 0.187-0.893s0.291-0.53 0.501-0.739l11.958-11.95c0.227-0.226 0.478-0.391 0.755-0.493s0.556-0.153 0.837-0.153c0.276 0 0.557 0.057 0.843 0.17s0.546 0.283 0.781 0.51l2.512 2.537c0.223 0.231 0.393 0.484 0.511 0.757s0.177 0.553 0.177 0.836c0 0.285-0.058 0.574-0.173 0.866s-0.287 0.552-0.515 0.78l-11.883 11.95c-0.21 0.21-0.456 0.375-0.739 0.497s-0.581 0.183-0.893 0.183h-3.722c-0.321 0-0.59-0.109-0.808-0.327s-0.327-0.488-0.327-0.808zM14.064 17.936h2.746l8.378-8.378-1.383-1.36-1.388-1.352-8.352 8.311v2.779z"></path>
</symbol>
<symbol id="icon-add_circle" viewBox="0 0 32 32">
<path d="M15.052 17.181v4.486c0 0.297 0.1 0.546 0.299 0.747s0.451 0.301 0.754 0.301c0.303 0 0.552-0.099 0.748-0.298s0.294-0.449 0.294-0.752v-4.484h4.519c0.297 0 0.546-0.1 0.747-0.299s0.301-0.451 0.301-0.754c0-0.303-0.099-0.552-0.298-0.748s-0.449-0.294-0.752-0.294h-4.517v-4.752c0-0.297-0.1-0.546-0.299-0.747s-0.451-0.301-0.754-0.301c-0.303 0-0.552 0.099-0.748 0.298s-0.294 0.449-0.294 0.752v4.75h-4.719c-0.297 0-0.546 0.1-0.747 0.299s-0.301 0.451-0.301 0.754c0 0.303 0.099 0.552 0.298 0.748s0.449 0.294 0.752 0.294h4.717zM16.010 29.533c-1.871 0-3.627-0.354-5.268-1.063s-3.076-1.677-4.305-2.907-2.198-2.665-2.907-4.307c-0.708-1.642-1.063-3.399-1.063-5.272s0.354-3.631 1.063-5.273c0.708-1.642 1.677-3.073 2.905-4.291s2.664-2.183 4.306-2.894c1.642-0.711 3.4-1.066 5.274-1.066s3.632 0.355 5.275 1.066c1.643 0.71 3.074 1.675 4.292 2.892s2.183 2.65 2.893 4.296c0.711 1.646 1.066 3.405 1.066 5.278s-0.355 3.628-1.066 5.269c-0.711 1.641-1.675 3.074-2.894 4.298s-2.65 2.193-4.296 2.906c-1.645 0.713-3.404 1.069-5.275 1.069zM16.017 27.262c3.123 0 5.778-1.097 7.965-3.292s3.28-4.857 3.28-7.987c0-3.123-1.091-5.778-3.274-7.965s-4.846-3.28-7.992-3.28c-3.115 0-5.77 1.091-7.965 3.274s-3.293 4.846-3.293 7.992c0 3.115 1.097 5.77 3.292 7.965s4.857 3.293 7.987 3.293z"></path>
</symbol>
<symbol id="icon-chevron_right" viewBox="0 0 32 32">
<path stroke-linejoin="miter" stroke-linecap="butt" stroke-miterlimit="4" stroke-width="1.3333" d="M12.516 8.897c0.134 0 0.237 0.041 0.341 0.145l6.592 6.592c0.072 0.072 0.105 0.128 0.121 0.165v0.001c0.020 0.047 0.031 0.1 0.031 0.165s-0.012 0.118-0.031 0.165v0.001c-0.016 0.037-0.049 0.093-0.121 0.165l-6.625 6.625c-0.104 0.104-0.193 0.133-0.301 0.129-0.125-0.005-0.233-0.047-0.348-0.161-0.104-0.104-0.146-0.207-0.146-0.341s0.042-0.237 0.146-0.341l6.242-6.242-6.276-6.276c-0.104-0.104-0.133-0.192-0.129-0.299 0.005-0.126 0.048-0.234 0.163-0.349 0.104-0.104 0.206-0.144 0.34-0.145z"></path>
</symbol>
<symbol id="icon-today" viewBox="0 0 32 32">
<path d="M11.807 21.715c-0.907 0-1.672-0.313-2.294-0.939s-0.933-1.393-0.933-2.3c0-0.907 0.313-1.672 0.94-2.294s1.393-0.933 2.3-0.933c0.907 0 1.671 0.313 2.294 0.94s0.933 1.393 0.933 2.3c0 0.907-0.313 1.671-0.939 2.294s-1.393 0.933-2.3 0.933zM6.070 29.533c-0.613 0-1.145-0.225-1.595-0.676s-0.676-0.982-0.676-1.595v-20.523c0-0.616 0.225-1.149 0.676-1.601s0.982-0.678 1.595-0.678h2.095v-0.862c0-0.319 0.111-0.588 0.332-0.808s0.491-0.33 0.808-0.33c0.326 0 0.602 0.11 0.826 0.33s0.336 0.489 0.336 0.808v0.862h11.062v-0.862c0-0.319 0.111-0.588 0.332-0.808s0.491-0.33 0.808-0.33c0.327 0 0.602 0.11 0.826 0.33s0.336 0.489 0.336 0.808v0.862h2.095c0.615 0 1.149 0.226 1.601 0.678s0.678 0.985 0.678 1.601v20.523c0 0.613-0.226 1.145-0.678 1.595s-0.985 0.676-1.601 0.676h-19.857zM6.070 27.262h19.857v-14.262h-19.857v14.262zM6.070 11h19.857v-4.262h-19.857v4.262z"></path>
</symbol>
<symbol id="icon-logout" viewBox="0 0 32 32">
<path d="M6.072 28.2c-0.613 0-1.145-0.225-1.595-0.676s-0.676-0.982-0.676-1.595v-19.857c0-0.616 0.225-1.149 0.676-1.601s0.982-0.678 1.595-0.678h8.807c0.321 0 0.59 0.111 0.808 0.334s0.327 0.495 0.327 0.816c0 0.322-0.109 0.59-0.327 0.806s-0.487 0.323-0.808 0.323h-8.807v19.857h8.807c0.321 0 0.59 0.11 0.808 0.329s0.327 0.49 0.327 0.812c0 0.322-0.109 0.591-0.327 0.806s-0.487 0.323-0.808 0.323h-8.807zM23.856 17.136h-10.768c-0.32 0-0.59-0.11-0.808-0.329s-0.327-0.49-0.327-0.812c0-0.322 0.109-0.591 0.327-0.806s0.488-0.323 0.808-0.323h10.701l-2.564-2.564c-0.227-0.228-0.334-0.495-0.323-0.8s0.13-0.571 0.357-0.795c0.226-0.229 0.496-0.342 0.81-0.34s0.585 0.117 0.815 0.344l4.529 4.529c0.221 0.228 0.332 0.494 0.332 0.797s-0.111 0.568-0.332 0.794l-4.496 4.496c-0.222 0.227-0.486 0.335-0.792 0.327s-0.577-0.126-0.812-0.352c-0.218-0.227-0.328-0.497-0.331-0.811s0.112-0.585 0.344-0.813l2.531-2.539z"></path>
</symbol>
<symbol id="icon-account_circle" viewBox="0 0 32 32">
<path d="M7.431 23.413c1.395-0.967 2.778-1.709 4.151-2.226s2.846-0.775 4.421-0.775c1.575 0 3.055 0.26 4.442 0.781s2.771 1.261 4.156 2.22c0.967-1.205 1.653-2.407 2.056-3.605s0.605-2.467 0.605-3.807c0-3.197-1.078-5.873-3.233-8.029s-4.831-3.233-8.028-3.233c-3.196 0-5.873 1.078-8.029 3.233s-3.234 4.832-3.234 8.029c0 1.34 0.206 2.608 0.618 3.805s1.104 2.399 2.076 3.608zM15.993 17.056c-1.302 0-2.395-0.445-3.28-1.335s-1.328-1.984-1.328-3.282 0.445-2.391 1.334-3.28c0.89-0.888 1.985-1.333 3.287-1.333s2.395 0.446 3.28 1.339c0.885 0.892 1.328 1.988 1.328 3.286s-0.445 2.39-1.334 3.276c-0.89 0.886-1.985 1.328-3.287 1.328zM16.010 29.533c-1.856 0-3.607-0.355-5.252-1.064s-3.084-1.68-4.315-2.911c-1.232-1.231-2.202-2.667-2.912-4.308s-1.064-3.393-1.064-5.259c0-1.859 0.355-3.608 1.066-5.245s1.681-3.071 2.911-4.301c1.23-1.23 2.665-2.201 4.306-2.915s3.394-1.070 5.26-1.070c1.859 0 3.608 0.357 5.245 1.070s3.071 1.685 4.301 2.915c1.23 1.23 2.201 2.664 2.915 4.303s1.070 3.386 1.070 5.242c0 1.856-0.357 3.607-1.070 5.253s-1.685 3.084-2.915 4.314c-1.23 1.23-2.664 2.2-4.303 2.911s-3.386 1.066-5.242 1.066zM15.999 27.262c1.206 0 2.379-0.173 3.52-0.517s2.277-0.954 3.41-1.827c-1.139-0.795-2.281-1.396-3.427-1.805s-2.314-0.613-3.503-0.613-2.356 0.205-3.499 0.613c-1.143 0.409-2.284 1.011-3.423 1.805 1.133 0.873 2.269 1.482 3.406 1.827s2.309 0.517 3.516 0.517zM15.999 14.96c0.739 0 1.343-0.233 1.814-0.701s0.705-1.072 0.705-1.814-0.235-1.348-0.705-1.818c-0.47-0.47-1.075-0.705-1.814-0.705s-1.343 0.235-1.814 0.705c-0.47 0.47-0.705 1.076-0.705 1.818s0.235 1.347 0.705 1.814c0.47 0.467 1.075 0.701 1.814 0.701z"></path>
</symbol>
<symbol id="icon-book_2" viewBox="0 0 32 32">
<path d="M7.348 21.27c0.316-0.202 0.659-0.356 1.030-0.461s0.768-0.158 1.192-0.158h1.112v-15.976h-1.112c-0.624 0-1.151 0.216-1.579 0.647s-0.643 0.959-0.643 1.583v14.365zM12.896 20.651h11.761v-15.976h-11.761v15.976zM9.57 29.533c-1.228 0-2.275-0.432-3.14-1.297s-1.297-1.911-1.297-3.14v-18.191c0-1.23 0.432-2.279 1.297-3.145s1.911-1.3 3.14-1.3h15.024c0.632 0 1.17 0.222 1.614 0.665s0.665 0.981 0.665 1.614v17.246c0 0.217-0.056 0.414-0.167 0.591s-0.253 0.301-0.427 0.373c-0.406 0.168-0.725 0.442-0.956 0.822s-0.347 0.818-0.347 1.315 0.115 0.934 0.345 1.311c0.23 0.377 0.548 0.648 0.954 0.812 0.192 0.084 0.34 0.229 0.443 0.437s0.155 0.46 0.155 0.756v0.037c0 0.303-0.107 0.56-0.322 0.774s-0.478 0.32-0.789 0.32h-16.191zM9.554 27.318h13.8c-0.188-0.316-0.333-0.665-0.437-1.047s-0.156-0.773-0.156-1.174c0-0.424 0.053-0.821 0.158-1.192s0.262-0.717 0.469-1.039h-13.831c-0.61 0-1.131 0.216-1.562 0.647s-0.647 0.959-0.647 1.583c0 0.619 0.216 1.144 0.647 1.575s0.951 0.647 1.56 0.647z"></path>
</symbol>
<symbol id="icon-conversion_path" viewBox="0 0 32 32">
<path d="M25.534 28.183c-0.97 0-1.807-0.288-2.511-0.864s-1.148-1.267-1.331-2.071h-6.925c-1.484 0-2.713-0.487-3.687-1.462s-1.461-2.205-1.461-3.69c0-1.48 0.487-2.707 1.461-3.682s2.203-1.462 3.687-1.462h2.567c0.893 0 1.626-0.286 2.196-0.857s0.856-1.303 0.856-2.197-0.285-1.626-0.856-2.196c-0.571-0.57-1.303-0.855-2.196-0.855h-7.017c-0.211 0.804-0.663 1.495-1.356 2.071s-1.525 0.864-2.494 0.864c-1.114 0-2.056-0.385-2.827-1.156s-1.156-1.713-1.156-2.827c0-1.114 0.385-2.057 1.156-2.827s1.713-1.156 2.827-1.156c0.97 0 1.801 0.288 2.494 0.864s1.145 1.267 1.356 2.071h7.017c1.483 0 2.711 0.487 3.686 1.462s1.462 2.203 1.462 3.686-0.487 2.711-1.462 3.686c-0.975 0.974-2.203 1.462-3.686 1.462h-2.567c-0.895 0-1.628 0.285-2.197 0.855s-0.855 1.301-0.855 2.193c0 0.898 0.285 1.632 0.855 2.201s1.302 0.855 2.197 0.855h6.925c0.205-0.805 0.655-1.495 1.348-2.071s1.525-0.864 2.494-0.864c1.114 0 2.056 0.385 2.827 1.156s1.156 1.713 1.156 2.827c0 1.114-0.385 2.057-1.156 2.827s-1.713 1.156-2.827 1.156zM6.468 9.6c0.511 0 0.939-0.172 1.283-0.517s0.517-0.772 0.517-1.283c0-0.511-0.172-0.939-0.517-1.283s-0.772-0.517-1.283-0.517c-0.511 0-0.939 0.172-1.283 0.517s-0.517 0.772-0.517 1.283c0 0.511 0.172 0.939 0.517 1.283s0.772 0.517 1.283 0.517z"></path>
</symbol>
</defs>
</svg>
